<svg id="Capa_1" data-name="Capa 1" xmlns="http://www.w3.org/2000/svg" xmlns:xlink="http://www.w3.org/1999/xlink" viewBox="0 0 293.01 65.48"><defs><style>.cls-1,.cls-4{font-size:56.43px;font-family:BlackOpsOne-Regular, Black Ops One;}.cls-1{fill:#1d1d1b;}.cls-2{fill:url(#Degradado_sin_nombre_64);}.cls-3{fill:url(#Degradado_sin_nombre_67);}.cls-4{fill:#008d36;}.cls-5{fill:url(#Degradado_sin_nombre_63);}</style><linearGradient id="Degradado_sin_nombre_64" x1="205.98" y1="57.05" x2="205.43" y2="2.65" gradientUnits="userSpaceOnUse"><stop offset="0.04" stop-color="#374d9c"/><stop offset="0.67" stop-color="#5e9eb0"/><stop offset="1" stop-color="#70c3b9"/></linearGradient><radialGradient id="Degradado_sin_nombre_67" cx="-118.39" cy="57.83" fy="-99.23032990578596" r="169.73" gradientTransform="translate(136.99 9.18) scale(0.38 0.44)" gradientUnits="userSpaceOnUse"><stop offset="0" stop-color="#70c3b9"/><stop offset="1" stop-color="#374d9c"/></radialGradient><linearGradient id="Degradado_sin_nombre_63" x1="34.48" y1="54.95" x2="34.48" y2="-0.53" gradientUnits="userSpaceOnUse"><stop offset="0" stop-color="#374d9c"/><stop offset="0.12" stop-color="#3f5ea0"/><stop offset="0.53" stop-color="#5994ae"/><stop offset="0.83" stop-color="#6ab6b6"/><stop offset="1" stop-color="#70c3b9"/></linearGradient></defs><text class="cls-1" transform="translate(113.61 46.5) scale(0.82 1)">erZone</text><path class="cls-2" d="M128.1,55h-4l-6-7.3V33l6-7.3h4Zm1.58-11.74V38.12h5.26V33h-5.26v-7.3h8.46l6,7.3V43.21Zm0,11.74V48.12h13.4v3.17l-3,3.66Z" transform="translate(-2.37 -8.45)"/><path class="cls-2" d="M148.36,55V25.69h10V55Zm15.82-22h-4.25v-3.2l3.34-4.1h6l4.85,6.83V40.1h-10Z" transform="translate(-2.37 -8.45)"/><path class="cls-2" d="M176.06,48.12l19.56-29.73h6.77v7.08L182.63,55h-6.57Zm.61-29.73h17l-5.66,8H176.67ZM202,55H184.64l5.68-8H202Z" transform="translate(-2.37 -8.45)"/><path class="cls-2" d="M215.79,48.12h2.6V55h-6.7l-6-7.3V33l6-7.3h6.7V33h-2.6Zm16.83-.47-6,7.3H220V48.12h2.48V33H220v-7.3h6.67l6,7.3Z" transform="translate(-2.37 -8.45)"/><path class="cls-2" d="M237.11,55V25.69h10.06V55Zm16-22H248.8v-3.2l3.34-4.1h5.55l5.39,6.58V55h-10Z" transform="translate(-2.37 -8.45)"/><path class="cls-2" d="M277.47,55h-4l-6-7.3V33l6-7.3h4Zm1.58-11.74V38.12h5.26V33h-5.26v-7.3h8.46l6,7.3V43.21Zm0,11.74V48.12h13.4v3.17l-3,3.66Z" transform="translate(-2.37 -8.45)"/><path class="cls-3" d="M73.44,55C76,55,78.19,53,78.93,50l2-8h21.7l2,8c.81,3.21,3.38,5.27,6.12,4.9s4.87-3.07,5.08-6.42a53.4,53.4,0,0,0-1.17-15L112.4,23.15a6.43,6.43,0,0,0-4.23-4.95V17a2.77,2.77,0,0,0-2.46-3h-3.27A2.77,2.77,0,0,0,100,17v1H83.62V17a2.77,2.77,0,0,0-2.45-3H77.89a2.77,2.77,0,0,0-2.45,3v1.2a6.41,6.41,0,0,0-4.23,4.95L68.89,33.5a53.4,53.4,0,0,0-1.16,15C68,52.13,70.45,54.93,73.44,55ZM83.62,37a2.5,2.5,0,1,1,4.91,0,2.5,2.5,0,1,1-4.91,0Zm11.46,0A2.5,2.5,0,1,1,100,37a2.5,2.5,0,1,1-4.91,0Zm6.54-20a.93.93,0,0,1,.82-1h3.27a.92.92,0,0,1,.82,1v1h-4.91Zm-4.19,3-.55,6.1a.91.91,0,0,1-.81.89H87.54a.89.89,0,0,1-.81-.89L86.17,20ZM77.07,17a.93.93,0,0,1,.82-1h3.28A.92.92,0,0,1,82,17v1H77.07Zm-6.6,17,2.32-10.35A4.31,4.31,0,0,1,76.73,20h7.79l.58,6.32A2.68,2.68,0,0,0,87.54,29h8.53a2.69,2.69,0,0,0,2.44-2.66L99.09,20h7.79a4.31,4.31,0,0,1,3.94,3.68L113.14,34a51.15,51.15,0,0,1,1.11,14.31c-.18,2.6-2,4.6-4.09,4.61a4.25,4.25,0,0,1-3.91-3.53L104,40.68a.86.86,0,0,0-.78-.71h-2.48a5.67,5.67,0,0,0,.84-3c0-2.75-1.83-5-4.09-5s-4.09,2.24-4.09,5a5.67,5.67,0,0,0,.84,3h-5a5.76,5.76,0,0,0,.84-3c0-2.75-1.84-5-4.1-5S82,34.22,82,37a5.76,5.76,0,0,0,.84,3H80.35a.85.85,0,0,0-.78.71l-2.21,8.74A4.26,4.26,0,0,1,73.44,53c-2.13,0-3.91-2-4.08-4.61A50.78,50.78,0,0,1,70.47,34Zm34.83-8a2.31,2.31,0,0,0,2-2.5,2.09,2.09,0,1,0-4.09,0A2.3,2.3,0,0,0,105.3,26Zm0-3a.46.46,0,0,1,.41.5.46.46,0,0,1-.41.5.46.46,0,0,1-.41-.5A.47.47,0,0,1,105.3,23Zm0,6.49a2.3,2.3,0,0,0-2,2.5,2.09,2.09,0,1,0,4.09,0A2.31,2.31,0,0,0,105.3,29.48Zm0,3a.51.51,0,0,1,0-1,.51.51,0,0,1,0,1Zm-3.27-2a2.31,2.31,0,0,0,2-2.49A2.09,2.09,0,1,0,100,28,2.3,2.3,0,0,0,102,30.48Zm0-3a.46.46,0,0,1,.41.5.42.42,0,1,1-.82,0A.46.46,0,0,1,102,27.49Zm4.5.5a2.08,2.08,0,1,0,4.09,0,2.09,2.09,0,1,0-4.09,0Zm2-.5a.46.46,0,0,1,.41.5.47.47,0,0,1-.41.5.46.46,0,0,1-.41-.5A.46.46,0,0,1,108.58,27.49ZM74.62,31h1.64v2a.92.92,0,0,0,.81,1h3.28a.93.93,0,0,0,.82-1V31H82.8a.92.92,0,0,0,.82-1V26a.93.93,0,0,0-.82-1H81.17V23a.93.93,0,0,0-.82-1H77.07a.92.92,0,0,0-.81,1v2H74.62a.93.93,0,0,0-.82,1v4A.92.92,0,0,0,74.62,31Zm.82-4h1.63a.92.92,0,0,0,.82-1V24h1.64v2a.93.93,0,0,0,.82,1H82v2H80.35a.93.93,0,0,0-.82,1v2H77.89V30a.92.92,0,0,0-.82-1H75.44Zm13.91-3H87.71V22h1.64Zm3.27,0H91V22h1.64Zm3.27,0H94.26V22h1.63Z" transform="translate(-2.37 -8.45)"/><text class="cls-4" transform="translate(0 46.5) scale(0.82 1)">Ga</text><path class="cls-5" d="M14.94,47.65h8.55V55H10.94l-6-7.3v-22l6-7.3h4Zm1.58-22v-7.3H28.68l5.23,7.3v3.66h-10V25.69Zm3.7,9H33.91V55H25.07v-13H20.22Z" transform="translate(-2.37 -8.45)"/><path class="cls-5" d="M52.66,37.92V43H47.52v5.13h5.14v3.22l-3,3.61H42.06l-4-4.82V42.8l4-4.88Zm1.58,17V33H40.05V29.35l3-3.66H58L64,33V55Z" transform="translate(-2.37 -8.45)"/></svg>